<?xml version="1.0" standalone="no"?>
<!DOCTYPE svg PUBLIC "-//W3C//DTD SVG 20010904//EN"
 "http://www.w3.org/TR/2001/REC-SVG-20010904/DTD/svg10.dtd">
<svg version="1.0" xmlns="http://www.w3.org/2000/svg"
 width="1280.000000pt" height="1064.000000pt" viewBox="0 0 1280.000000 1064.000000"
 preserveAspectRatio="xMidYMid meet">
<g transform="translate(0.000000,1064.000000) scale(0.100000,-0.100000)"
fill="#000000" stroke="none">
<path d="M3420 10629 c-52 -4 -189 -12 -305 -19 -485 -25 -847 -81 -1120 -171
-267 -89 -676 -337 -970 -589 -126 -109 -347 -337 -434 -450 -229 -295 -391
-624 -435 -887 -31 -181 -74 -720 -58 -734 4 -4 113 -27 242 -53 129 -25 377
-73 551 -107 l316 -61 783 268 783 268 28 66 c16 36 37 81 46 100 l18 34 210
42 c116 23 365 71 555 108 190 37 360 72 379 78 95 30 412 312 458 408 12 25
33 101 47 170 13 69 43 207 66 308 23 101 40 185 37 188 -2 3 -229 -111 -503
-253 l-499 -258 -425 -11 c-234 -7 -474 -13 -533 -13 l-108 -1 -20 45 c-38 86
-96 51 766 459 718 340 784 369 830 368 43 -1 378 -26 642 -48 l81 -7 30 59
c52 105 85 213 90 301 4 75 2 86 -22 128 -80 136 -366 234 -772 264 -158 12
-610 12 -754 0z"/>
<path d="M8433 10604 c-309 -48 -534 -147 -587 -258 -20 -43 -21 -140 0 -218
15 -61 86 -234 101 -249 5 -5 178 5 385 22 l376 30 792 -373 792 -373 -5 -31
c-3 -16 -12 -47 -21 -68 l-15 -37 -218 6 c-120 3 -359 10 -531 15 l-313 9
-500 256 c-275 142 -503 254 -506 251 -3 -3 14 -87 37 -188 23 -101 53 -239
66 -308 14 -69 35 -145 46 -170 30 -61 190 -220 318 -315 58 -43 114 -82 125
-86 11 -5 146 -33 300 -63 754 -148 851 -168 862 -179 7 -7 30 -52 50 -101
l38 -88 784 -269 784 -269 541 106 c297 57 549 107 559 110 20 6 20 11 -9 379
-25 328 -51 463 -121 640 -242 613 -812 1189 -1532 1549 -147 74 -253 113
-406 149 -408 97 -903 138 -1665 136 -323 -1 -459 -5 -527 -15z"/>
<path d="M4904 8600 c-189 -49 -372 -187 -458 -344 -57 -104 -71 -158 -70
-281 0 -284 129 -474 394 -585 41 -18 81 -37 87 -44 14 -13 265 -1140 261
-1171 -3 -21 -160 -121 -176 -111 -5 3 -22 40 -37 83 -53 151 -108 239 -177
285 -33 23 -52 28 -98 28 -263 0 -1100 -447 -1645 -877 -135 -107 -321 -286
-385 -372 -96 -128 -129 -228 -109 -335 24 -134 103 -251 328 -490 180 -190
196 -215 205 -308 25 -252 142 -741 256 -1073 85 -245 188 -470 282 -615 55
-86 218 -248 344 -342 210 -159 501 -331 853 -507 l217 -109 722 -146 722
-145 562 114 c310 62 624 126 698 141 126 25 147 32 325 119 451 221 849 471
1061 669 163 150 277 344 409 692 126 332 259 854 295 1159 9 69 19 112 35
140 13 23 96 119 185 215 179 193 234 265 280 362 57 122 58 225 4 335 -146
301 -815 806 -1539 1163 -309 153 -507 220 -597 204 -97 -19 -184 -132 -247
-326 -13 -37 -27 -70 -32 -74 -16 -9 -179 95 -179 115 0 10 59 276 130 592 95
417 135 578 148 587 9 8 40 25 67 39 137 70 238 160 286 254 55 111 74 199 73
349 0 119 -3 144 -26 208 -55 154 -155 270 -290 336 -364 180 -767 18 -906
-366 -24 -66 -27 -86 -27 -218 0 -134 2 -150 26 -208 45 -105 90 -171 182
-265 48 -49 87 -92 87 -96 0 -20 -225 -918 -233 -929 -8 -10 -22 -6 -66 19
-85 47 -88 52 -96 132 -10 94 -37 188 -66 231 -70 102 -253 149 -584 150 -297
0 -443 -32 -527 -115 -54 -54 -73 -106 -90 -246 l-12 -93 -67 -40 c-37 -22
-72 -40 -78 -40 -13 0 -7 -20 -137 505 l-107 437 44 36 c138 110 228 231 263
351 20 69 21 222 1 316 -39 185 -185 371 -355 453 -146 70 -283 87 -416 52z"/>
<path d="M96 7313 c-22 -75 -50 -264 -87 -585 -17 -155 3 -408 46 -579 27
-108 98 -241 163 -308 70 -71 107 -83 187 -57 65 20 222 114 375 223 293 210
784 607 777 628 -3 7 -94 150 -202 318 l-196 306 -42 5 c-46 6 -946 66 -989
66 -17 0 -29 -7 -32 -17z"/>
<path d="M12095 7287 c-365 -24 -443 -32 -456 -46 -21 -21 -399 -609 -399
-621 0 -4 11 -17 24 -27 13 -10 109 -88 212 -173 485 -398 836 -636 969 -655
34 -6 47 -2 86 25 206 137 303 556 246 1060 -18 161 -51 367 -68 433 l-10 37
-82 -1 c-45 -1 -280 -15 -522 -32z"/>
<path d="M1770 6162 c-435 -292 -665 -466 -821 -622 -113 -112 -133 -149 -134
-242 0 -58 4 -72 30 -110 90 -126 306 -174 678 -150 188 12 446 45 484 61 26
12 993 898 993 910 0 5 -33 20 -72 34 -377 129 -520 176 -683 223 -104 29
-201 54 -215 54 -15 -1 -114 -61 -260 -158z"/>
<path d="M10565 6262 c-110 -32 -330 -102 -488 -156 l-289 -99 39 -38 c21 -20
245 -226 497 -457 l459 -420 62 -11 c403 -71 772 -75 953 -11 151 53 216 162
178 295 -15 48 -30 70 -104 147 -95 99 -242 219 -452 372 -151 110 -636 436
-648 436 -4 -1 -97 -27 -207 -58z"/>
<path d="M945 4375 c-209 -105 -534 -397 -666 -597 -98 -149 -104 -181 -103
-503 1 -148 5 -280 10 -292 8 -20 38 -3 509 293 275 174 518 326 541 340 l41
24 769 -100 c423 -56 786 -103 807 -107 28 -4 37 -2 37 8 -1 45 -160 752 -173
773 -20 30 -54 41 -217 66 -202 31 -557 67 -1085 110 -352 29 -384 28 -470
-15z"/>
<path d="M11590 4399 c-449 -33 -1031 -89 -1246 -119 -163 -23 -234 -42 -258
-69 -12 -13 -43 -139 -97 -393 -43 -205 -79 -379 -79 -386 0 -9 10 -11 33 -7
17 3 113 16 212 29 99 13 448 58 775 101 l595 78 529 -332 c290 -183 534 -335
542 -338 24 -9 29 45 29 317 -1 300 -5 328 -83 458 -121 203 -440 497 -671
620 -89 47 -126 53 -281 41z"/>
<path d="M2440 2630 l-575 -259 -33 -53 c-92 -149 -227 -443 -294 -638 -82
-238 -108 -460 -73 -616 33 -147 187 -558 207 -552 5 2 204 287 442 633 l433
630 371 235 c204 129 377 241 383 247 16 16 -248 633 -271 632 -8 0 -274 -117
-590 -259z"/>
<path d="M9751 2872 c-5 -9 -66 -150 -136 -312 -82 -190 -124 -299 -119 -307
5 -7 167 -112 359 -234 193 -122 362 -230 377 -240 14 -11 221 -303 459 -649
238 -347 436 -630 439 -630 10 0 122 281 165 415 49 152 59 219 52 355 -9 171
-73 402 -177 641 -55 125 -198 402 -224 433 -14 17 -193 102 -561 267 -702
314 -623 282 -634 261z"/>
<path d="M3843 1750 c-133 -29 -351 -291 -596 -716 -46 -79 -47 -83 -47 -167
0 -170 43 -420 90 -519 45 -97 209 -255 315 -304 36 -17 68 -24 113 -24 l62 0
0 43 c0 83 21 642 25 663 3 14 107 93 317 239 414 289 388 267 378 308 -14 62
-19 67 -300 277 -265 198 -293 213 -357 200z"/>
<path d="M8862 1728 c-48 -26 -308 -215 -452 -329 -85 -67 -98 -82 -108 -120
-6 -23 -9 -46 -7 -50 3 -3 158 -114 346 -245 188 -132 345 -248 350 -259 6
-17 29 -559 29 -689 l0 -38 55 4 c95 8 194 66 305 177 52 53 107 119 122 147
50 93 98 359 98 540 l0 82 -97 161 c-139 229 -255 392 -352 494 -131 138 -206
170 -289 125z"/>
</g>
</svg>
